<svg xmlns="http://www.w3.org/2000/svg" width="1080" height="1920" viewBox="0 0 1080 1920"><defs><linearGradient id="cg" x1="0" y1="0" x2="0" y2="1"><stop offset="0" stop-color="#000000" stop-opacity="0"/><stop offset="0.55" stop-color="#000000" stop-opacity="0"/><stop offset="1" stop-color="#000000" stop-opacity="0.82"/></linearGradient></defs><rect x="0" y="0" width="1080" height="1920" fill="#0B0B0A"/><rect x="60" y="52" width="50" height="50" rx="11" fill="#C6A15B"/><path d="M72 89 L82 67 L90 82 L84 89 Z" fill="#15120C"/><rect x="90" y="73" width="8" height="16" rx="1" fill="#15120C"/><text x="124" y="79" font-family="Inter" font-weight="800" font-size="28" fill="#F1E9D8" letter-spacing="0.5px">A10</text><text x="125" y="96" font-family="Inter" font-weight="600" font-size="10" fill="#948A78" letter-spacing="3px">EMPREENDIMENTOS</text><text x="1020" y="86" text-anchor="end" font-family="Inter" font-weight="600" font-size="16" fill="#948A78" letter-spacing="3px">BALNE&#193;RIO CAMBORI&#218;</text><rect x="60" y="124" width="40" height="3" rx="1.5" fill="#C6A15B"/><rect x="60" y="146" width="960" height="959" rx="12" fill="#131210" stroke="#2A2620" stroke-width="1.5"/><g><rect x="520" y="602.5" width="40" height="30" rx="5" fill="none" stroke="#6E665A" stroke-width="2"/><circle cx="533" cy="614.5" r="4" fill="#6E665A"/><path d="M525 629.5 L537 616.5 L544 623.5 L552 614.5 L557 629.5 Z" fill="#6E665A" opacity="0.5"/></g><text x="540" y="655.5" text-anchor="middle" font-family="Inter" font-weight="400" font-size="15" fill="#6E665A">Foto de Balne&#225;rio Cambori&#250;</text><text x="60" y="1135" font-family="Inter" font-weight="600" font-size="16" fill="#C6A15B" letter-spacing="3px">INVESTIMENTO DE ALTO PADR&#195;O</text><text x="60" y="1204" font-family="Playfair Display" font-weight="500" font-size="64" fill="#F1E9D8">Quero multiplicar</text><text x="60" y="1276" font-family="Playfair Display" font-weight="500" font-size="64" fill="#F1E9D8">meu patrim&#244;nio.</text><text x="60" y="1318" font-family="Inter" font-weight="600" font-size="15" fill="#C6A15B" letter-spacing="3px">O PORTF&#211;LIO A10</text><g><rect x="60" y="1348" width="231" height="330" rx="10" fill="#161410" stroke="#2A2620" stroke-width="1"/><rect x="60" y="1348" width="231" height="330" rx="10" fill="url(#cg)"/><g><rect x="155.5" y="1465" width="40" height="30" rx="5" fill="none" stroke="#6E665A" stroke-width="2"/><circle cx="168.5" cy="1477" r="4" fill="#6E665A"/><path d="M160.5 1492 L172.5 1479 L179.5 1486 L187.5 1477 L192.5 1492 Z" fill="#6E665A" opacity="0.5"/></g><text x="175.5" y="1514" text-anchor="middle" font-family="Inter" font-weight="400" font-size="13" fill="#6E665A">Foto &#8212; Cape Town</text><text x="78" y="1632" font-family="Inter" font-weight="700" font-size="13" fill="#C6A15B" letter-spacing="1px">01</text><text x="78" y="1656" font-family="Inter" font-weight="700" font-size="20" fill="#F5F0E6">Cape Town</text></g><g><rect x="303" y="1348" width="231" height="330" rx="10" fill="#161410" stroke="#2A2620" stroke-width="1"/><rect x="303" y="1348" width="231" height="330" rx="10" fill="url(#cg)"/><g><rect x="398.5" y="1465" width="40" height="30" rx="5" fill="none" stroke="#6E665A" stroke-width="2"/><circle cx="411.5" cy="1477" r="4" fill="#6E665A"/><path d="M403.5 1492 L415.5 1479 L422.5 1486 L430.5 1477 L435.5 1492 Z" fill="#6E665A" opacity="0.5"/></g><text x="418.5" y="1514" text-anchor="middle" font-family="Inter" font-weight="400" font-size="13" fill="#6E665A">Foto &#8212; Holmes</text><text x="321" y="1632" font-family="Inter" font-weight="700" font-size="13" fill="#C6A15B" letter-spacing="1px">02</text><text x="321" y="1656" font-family="Inter" font-weight="700" font-size="20" fill="#F5F0E6">Holmes</text></g><g><rect x="546" y="1348" width="231" height="330" rx="10" fill="#161410" stroke="#2A2620" stroke-width="1"/><rect x="546" y="1348" width="231" height="330" rx="10" fill="url(#cg)"/><g><rect x="641.5" y="1465" width="40" height="30" rx="5" fill="none" stroke="#6E665A" stroke-width="2"/><circle cx="654.5" cy="1477" r="4" fill="#6E665A"/><path d="M646.5 1492 L658.5 1479 L665.5 1486 L673.5 1477 L678.5 1492 Z" fill="#6E665A" opacity="0.5"/></g><text x="661.5" y="1514" text-anchor="middle" font-family="Inter" font-weight="400" font-size="13" fill="#6E665A">Foto &#8212; P&#225;tio Estaleiro</text><text x="564" y="1632" font-family="Inter" font-weight="700" font-size="13" fill="#C6A15B" letter-spacing="1px">03</text><text x="564" y="1656" font-family="Inter" font-weight="700" font-size="20" fill="#F5F0E6">P&#225;tio Estaleiro</text></g><g><rect x="789" y="1348" width="231" height="330" rx="10" fill="#161410" stroke="#2A2620" stroke-width="1"/><rect x="789" y="1348" width="231" height="330" rx="10" fill="url(#cg)"/><g><rect x="884.5" y="1465" width="40" height="30" rx="5" fill="none" stroke="#6E665A" stroke-width="2"/><circle cx="897.5" cy="1477" r="4" fill="#6E665A"/><path d="M889.5 1492 L901.5 1479 L908.5 1486 L916.5 1477 L921.5 1492 Z" fill="#6E665A" opacity="0.5"/></g><text x="904.5" y="1514" text-anchor="middle" font-family="Inter" font-weight="400" font-size="13" fill="#6E665A">Foto &#8212; Porto Rotterdan</text><text x="807" y="1632" font-family="Inter" font-weight="700" font-size="13" fill="#C6A15B" letter-spacing="1px">04</text><text x="807" y="1656" font-family="Inter" font-weight="700" font-size="20" fill="#F5F0E6">Porto Rotterdan</text></g><text x="60" y="1736" font-family="Inter" font-weight="600" font-size="13" fill="#948A78" letter-spacing="3px">A10 EMPREENDIMENTOS</text><text x="60" y="1780" font-family="Playfair Display" font-weight="500" font-size="34" fill="#F1E9D8">Sua renda vista do mar.</text><rect x="690" y="1718" width="330" height="72" rx="36" fill="#C6A15B"/><text x="855" y="1761" text-anchor="middle" font-family="Inter" font-weight="600" font-size="20" fill="#15120C" letter-spacing="0.5px">Simule seu investimento</text></svg>