<svg xmlns="http://www.w3.org/2000/svg" width="1080" height="1350" viewBox="0 0 1080 1350"><defs><linearGradient id="cg" x1="0" y1="0" x2="0" y2="1"><stop offset="0" stop-color="#000000" stop-opacity="0"/><stop offset="0.55" stop-color="#000000" stop-opacity="0"/><stop offset="1" stop-color="#000000" stop-opacity="0.82"/></linearGradient></defs><rect x="0" y="0" width="1080" height="1350" fill="#0B0B0A"/><rect x="60" y="52" width="50" height="50" rx="11" fill="#C6A15B"/><path d="M72 89 L82 67 L90 82 L84 89 Z" fill="#15120C"/><rect x="90" y="73" width="8" height="16" rx="1" fill="#15120C"/><text x="124" y="79" font-family="Inter" font-weight="800" font-size="28" fill="#F1E9D8" letter-spacing="0.5px">A10</text><text x="125" y="96" font-family="Inter" font-weight="600" font-size="10" fill="#948A78" letter-spacing="3px">EMPREENDIMENTOS</text><text x="1020" y="86" text-anchor="end" font-family="Inter" font-weight="600" font-size="16" fill="#948A78" letter-spacing="3px">BALNE&#193;RIO CAMBORI&#218;</text><rect x="60" y="124" width="40" height="3" rx="1.5" fill="#C6A15B"/><rect x="60" y="146" width="960" height="515" rx="12" fill="#131210" stroke="#2A2620" stroke-width="1.5"/><g><rect x="520" y="380.5" width="40" height="30" rx="5" fill="none" stroke="#6E665A" stroke-width="2"/><circle cx="533" cy="392.5" r="4" fill="#6E665A"/><path d="M525 407.5 L537 394.5 L544 401.5 L552 392.5 L557 407.5 Z" fill="#6E665A" opacity="0.5"/></g><text x="540" y="433.5" text-anchor="middle" font-family="Inter" font-weight="400" font-size="15" fill="#6E665A">Foto de Balne&#225;rio Cambori&#250;</text><text x="60" y="691" font-family="Inter" font-weight="600" font-size="16" fill="#C6A15B" letter-spacing="3px">INVESTIMENTO DE ALTO PADR&#195;O</text><text x="60" y="752" font-family="Playfair Display" font-weight="500" font-size="54" fill="#F1E9D8">Quero multiplicar</text><text x="60" y="814" font-family="Playfair Display" font-weight="500" font-size="54" fill="#F1E9D8">meu patrim&#244;nio.</text><text x="60" y="856" font-family="Inter" font-weight="600" font-size="15" fill="#C6A15B" letter-spacing="3px">O PORTF&#211;LIO A10</text><g><rect x="60" y="886" width="231" height="230" rx="10" fill="#161410" stroke="#2A2620" stroke-width="1"/><rect x="60" y="886" width="231" height="230" rx="10" fill="url(#cg)"/><g><rect x="155.5" y="963" width="40" height="30" rx="5" fill="none" stroke="#6E665A" stroke-width="2"/><circle cx="168.5" cy="975" r="4" fill="#6E665A"/><path d="M160.5 990 L172.5 977 L179.5 984 L187.5 975 L192.5 990 Z" fill="#6E665A" opacity="0.5"/></g><text x="175.5" y="1012" text-anchor="middle" font-family="Inter" font-weight="400" font-size="13" fill="#6E665A">Foto &#8212; Cape Town</text><text x="78" y="1070" font-family="Inter" font-weight="700" font-size="13" fill="#C6A15B" letter-spacing="1px">01</text><text x="78" y="1094" font-family="Inter" font-weight="700" font-size="20" fill="#F5F0E6">Cape Town</text></g><g><rect x="303" y="886" width="231" height="230" rx="10" fill="#161410" stroke="#2A2620" stroke-width="1"/><rect x="303" y="886" width="231" height="230" rx="10" fill="url(#cg)"/><g><rect x="398.5" y="963" width="40" height="30" rx="5" fill="none" stroke="#6E665A" stroke-width="2"/><circle cx="411.5" cy="975" r="4" fill="#6E665A"/><path d="M403.5 990 L415.5 977 L422.5 984 L430.5 975 L435.5 990 Z" fill="#6E665A" opacity="0.5"/></g><text x="418.5" y="1012" text-anchor="middle" font-family="Inter" font-weight="400" font-size="13" fill="#6E665A">Foto &#8212; Holmes</text><text x="321" y="1070" font-family="Inter" font-weight="700" font-size="13" fill="#C6A15B" letter-spacing="1px">02</text><text x="321" y="1094" font-family="Inter" font-weight="700" font-size="20" fill="#F5F0E6">Holmes</text></g><g><rect x="546" y="886" width="231" height="230" rx="10" fill="#161410" stroke="#2A2620" stroke-width="1"/><rect x="546" y="886" width="231" height="230" rx="10" fill="url(#cg)"/><g><rect x="641.5" y="963" width="40" height="30" rx="5" fill="none" stroke="#6E665A" stroke-width="2"/><circle cx="654.5" cy="975" r="4" fill="#6E665A"/><path d="M646.5 990 L658.5 977 L665.5 984 L673.5 975 L678.5 990 Z" fill="#6E665A" opacity="0.5"/></g><text x="661.5" y="1012" text-anchor="middle" font-family="Inter" font-weight="400" font-size="13" fill="#6E665A">Foto &#8212; P&#225;tio Estaleiro</text><text x="564" y="1070" font-family="Inter" font-weight="700" font-size="13" fill="#C6A15B" letter-spacing="1px">03</text><text x="564" y="1094" font-family="Inter" font-weight="700" font-size="20" fill="#F5F0E6">P&#225;tio Estaleiro</text></g><g><rect x="789" y="886" width="231" height="230" rx="10" fill="#161410" stroke="#2A2620" stroke-width="1"/><rect x="789" y="886" width="231" height="230" rx="10" fill="url(#cg)"/><g><rect x="884.5" y="963" width="40" height="30" rx="5" fill="none" stroke="#6E665A" stroke-width="2"/><circle cx="897.5" cy="975" r="4" fill="#6E665A"/><path d="M889.5 990 L901.5 977 L908.5 984 L916.5 975 L921.5 990 Z" fill="#6E665A" opacity="0.5"/></g><text x="904.5" y="1012" text-anchor="middle" font-family="Inter" font-weight="400" font-size="13" fill="#6E665A">Foto &#8212; Porto Rotterdan</text><text x="807" y="1070" font-family="Inter" font-weight="700" font-size="13" fill="#C6A15B" letter-spacing="1px">04</text><text x="807" y="1094" font-family="Inter" font-weight="700" font-size="20" fill="#F5F0E6">Porto Rotterdan</text></g><text x="60" y="1174" font-family="Inter" font-weight="600" font-size="13" fill="#948A78" letter-spacing="3px">A10 EMPREENDIMENTOS</text><text x="60" y="1212" font-family="Playfair Display" font-weight="500" font-size="30" fill="#F1E9D8">Sua renda vista do mar.</text><rect x="708" y="1156" width="312" height="64" rx="32" fill="#C6A15B"/><text x="864" y="1195" text-anchor="middle" font-family="Inter" font-weight="600" font-size="20" fill="#15120C" letter-spacing="0.5px">Simule seu investimento</text></svg>