<svg xmlns="http://www.w3.org/2000/svg" xmlns:xlink="http://www.w3.org/1999/xlink" width="1080" height="2400" viewBox="0 0 1080 2400">
  <title>Portfólio A10 · Grade Clássica · Duas Colunas</title>
  <defs>
    <style>@import url('https://fonts.googleapis.com/css2?family=Bodoni+Moda:ital,opsz,wght@0,6..96,400;0,6..96,500;0,6..96,600;1,6..96,400;1,6..96,500&amp;family=Poppins:wght@300;400;500;600&amp;display=swap');</style>
    <linearGradient id="bg" x1="0" y1="0" x2="0.35" y2="1">
      <stop offset="0" stop-color="#0C1C31"/>
      <stop offset="0.55" stop-color="#0B1A2D"/>
      <stop offset="1" stop-color="#081320"/>
    </linearGradient>
    <linearGradient id="goldGrad" x1="0" y1="0" x2="0" y2="1">
      <stop offset="0" stop-color="#E3C77E"/>
      <stop offset="1" stop-color="#B5904E"/>
    </linearGradient>
    <radialGradient id="glow" cx="0.82" cy="0.10" r="0.55">
      <stop offset="0" stop-color="#E3C77E" stop-opacity="0.10"/>
      <stop offset="1" stop-color="#E3C77E" stop-opacity="0"/>
    </radialGradient>
  </defs>
  <rect x="0" y="0" width="1080" height="2400" fill="url(#bg)"/>
  <clipPath id="clip4"><rect x="0" y="0" width="1080" height="2400"/></clipPath>
  <g clip-path="url(#clip4)" opacity="0.22">
    <line x1="-2400" y1="2400" x2="3480" y2="-3480" stroke="#2C4763" stroke-width="1"/>
    <line x1="-2400" y1="2428" x2="3480" y2="-3452" stroke="#2C4763" stroke-width="1"/>
    <line x1="-2400" y1="2456" x2="3480" y2="-3424" stroke="#2C4763" stroke-width="1"/>
    <line x1="-2400" y1="2484" x2="3480" y2="-3396" stroke="#2C4763" stroke-width="1"/>
    <line x1="-2400" y1="2512" x2="3480" y2="-3368" stroke="#2C4763" stroke-width="1"/>
    <line x1="-2400" y1="2540" x2="3480" y2="-3340" stroke="#2C4763" stroke-width="1"/>
    <line x1="-2400" y1="2568" x2="3480" y2="-3312" stroke="#2C4763" stroke-width="1"/>
    <line x1="-2400" y1="2596" x2="3480" y2="-3284" stroke="#2C4763" stroke-width="1"/>
    <line x1="-2400" y1="2624" x2="3480" y2="-3256" stroke="#2C4763" stroke-width="1"/>
    <line x1="-2400" y1="2652" x2="3480" y2="-3228" stroke="#2C4763" stroke-width="1"/>
    <line x1="-2400" y1="2680" x2="3480" y2="-3200" stroke="#2C4763" stroke-width="1"/>
    <line x1="-2400" y1="2708" x2="3480" y2="-3172" stroke="#2C4763" stroke-width="1"/>
    <line x1="-2400" y1="2736" x2="3480" y2="-3144" stroke="#2C4763" stroke-width="1"/>
    <line x1="-2400" y1="2764" x2="3480" y2="-3116" stroke="#2C4763" stroke-width="1"/>
    <line x1="-2400" y1="2792" x2="3480" y2="-3088" stroke="#2C4763" stroke-width="1"/>
    <line x1="-2400" y1="2820" x2="3480" y2="-3060" stroke="#2C4763" stroke-width="1"/>
    <line x1="-2400" y1="2848" x2="3480" y2="-3032" stroke="#2C4763" stroke-width="1"/>
    <line x1="-2400" y1="2876" x2="3480" y2="-3004" stroke="#2C4763" stroke-width="1"/>
    <line x1="-2400" y1="2904" x2="3480" y2="-2976" stroke="#2C4763" stroke-width="1"/>
    <line x1="-2400" y1="2932" x2="3480" y2="-2948" stroke="#2C4763" stroke-width="1"/>
    <line x1="-2400" y1="2960" x2="3480" y2="-2920" stroke="#2C4763" stroke-width="1"/>
    <line x1="-2400" y1="2988" x2="3480" y2="-2892" stroke="#2C4763" stroke-width="1"/>
    <line x1="-2400" y1="3016" x2="3480" y2="-2864" stroke="#2C4763" stroke-width="1"/>
    <line x1="-2400" y1="3044" x2="3480" y2="-2836" stroke="#2C4763" stroke-width="1"/>
    <line x1="-2400" y1="3072" x2="3480" y2="-2808" stroke="#2C4763" stroke-width="1"/>
    <line x1="-2400" y1="3100" x2="3480" y2="-2780" stroke="#2C4763" stroke-width="1"/>
    <line x1="-2400" y1="3128" x2="3480" y2="-2752" stroke="#2C4763" stroke-width="1"/>
    <line x1="-2400" y1="3156" x2="3480" y2="-2724" stroke="#2C4763" stroke-width="1"/>
    <line x1="-2400" y1="3184" x2="3480" y2="-2696" stroke="#2C4763" stroke-width="1"/>
    <line x1="-2400" y1="3212" x2="3480" y2="-2668" stroke="#2C4763" stroke-width="1"/>
    <line x1="-2400" y1="3240" x2="3480" y2="-2640" stroke="#2C4763" stroke-width="1"/>
    <line x1="-2400" y1="3268" x2="3480" y2="-2612" stroke="#2C4763" stroke-width="1"/>
    <line x1="-2400" y1="3296" x2="3480" y2="-2584" stroke="#2C4763" stroke-width="1"/>
    <line x1="-2400" y1="3324" x2="3480" y2="-2556" stroke="#2C4763" stroke-width="1"/>
    <line x1="-2400" y1="3352" x2="3480" y2="-2528" stroke="#2C4763" stroke-width="1"/>
    <line x1="-2400" y1="3380" x2="3480" y2="-2500" stroke="#2C4763" stroke-width="1"/>
    <line x1="-2400" y1="3408" x2="3480" y2="-2472" stroke="#2C4763" stroke-width="1"/>
    <line x1="-2400" y1="3436" x2="3480" y2="-2444" stroke="#2C4763" stroke-width="1"/>
    <line x1="-2400" y1="3464" x2="3480" y2="-2416" stroke="#2C4763" stroke-width="1"/>
    <line x1="-2400" y1="3492" x2="3480" y2="-2388" stroke="#2C4763" stroke-width="1"/>
    <line x1="-2400" y1="3520" x2="3480" y2="-2360" stroke="#2C4763" stroke-width="1"/>
    <line x1="-2400" y1="3548" x2="3480" y2="-2332" stroke="#2C4763" stroke-width="1"/>
    <line x1="-2400" y1="3576" x2="3480" y2="-2304" stroke="#2C4763" stroke-width="1"/>
    <line x1="-2400" y1="3604" x2="3480" y2="-2276" stroke="#2C4763" stroke-width="1"/>
    <line x1="-2400" y1="3632" x2="3480" y2="-2248" stroke="#2C4763" stroke-width="1"/>
    <line x1="-2400" y1="3660" x2="3480" y2="-2220" stroke="#2C4763" stroke-width="1"/>
    <line x1="-2400" y1="3688" x2="3480" y2="-2192" stroke="#2C4763" stroke-width="1"/>
    <line x1="-2400" y1="3716" x2="3480" y2="-2164" stroke="#2C4763" stroke-width="1"/>
    <line x1="-2400" y1="3744" x2="3480" y2="-2136" stroke="#2C4763" stroke-width="1"/>
    <line x1="-2400" y1="3772" x2="3480" y2="-2108" stroke="#2C4763" stroke-width="1"/>
    <line x1="-2400" y1="3800" x2="3480" y2="-2080" stroke="#2C4763" stroke-width="1"/>
    <line x1="-2400" y1="3828" x2="3480" y2="-2052" stroke="#2C4763" stroke-width="1"/>
    <line x1="-2400" y1="3856" x2="3480" y2="-2024" stroke="#2C4763" stroke-width="1"/>
    <line x1="-2400" y1="3884" x2="3480" y2="-1996" stroke="#2C4763" stroke-width="1"/>
    <line x1="-2400" y1="3912" x2="3480" y2="-1968" stroke="#2C4763" stroke-width="1"/>
    <line x1="-2400" y1="3940" x2="3480" y2="-1940" stroke="#2C4763" stroke-width="1"/>
    <line x1="-2400" y1="3968" x2="3480" y2="-1912" stroke="#2C4763" stroke-width="1"/>
    <line x1="-2400" y1="3996" x2="3480" y2="-1884" stroke="#2C4763" stroke-width="1"/>
    <line x1="-2400" y1="4024" x2="3480" y2="-1856" stroke="#2C4763" stroke-width="1"/>
    <line x1="-2400" y1="4052" x2="3480" y2="-1828" stroke="#2C4763" stroke-width="1"/>
    <line x1="-2400" y1="4080" x2="3480" y2="-1800" stroke="#2C4763" stroke-width="1"/>
    <line x1="-2400" y1="4108" x2="3480" y2="-1772" stroke="#2C4763" stroke-width="1"/>
    <line x1="-2400" y1="4136" x2="3480" y2="-1744" stroke="#2C4763" stroke-width="1"/>
    <line x1="-2400" y1="4164" x2="3480" y2="-1716" stroke="#2C4763" stroke-width="1"/>
    <line x1="-2400" y1="4192" x2="3480" y2="-1688" stroke="#2C4763" stroke-width="1"/>
    <line x1="-2400" y1="4220" x2="3480" y2="-1660" stroke="#2C4763" stroke-width="1"/>
    <line x1="-2400" y1="4248" x2="3480" y2="-1632" stroke="#2C4763" stroke-width="1"/>
    <line x1="-2400" y1="4276" x2="3480" y2="-1604" stroke="#2C4763" stroke-width="1"/>
    <line x1="-2400" y1="4304" x2="3480" y2="-1576" stroke="#2C4763" stroke-width="1"/>
    <line x1="-2400" y1="4332" x2="3480" y2="-1548" stroke="#2C4763" stroke-width="1"/>
    <line x1="-2400" y1="4360" x2="3480" y2="-1520" stroke="#2C4763" stroke-width="1"/>
    <line x1="-2400" y1="4388" x2="3480" y2="-1492" stroke="#2C4763" stroke-width="1"/>
    <line x1="-2400" y1="4416" x2="3480" y2="-1464" stroke="#2C4763" stroke-width="1"/>
    <line x1="-2400" y1="4444" x2="3480" y2="-1436" stroke="#2C4763" stroke-width="1"/>
    <line x1="-2400" y1="4472" x2="3480" y2="-1408" stroke="#2C4763" stroke-width="1"/>
    <line x1="-2400" y1="4500" x2="3480" y2="-1380" stroke="#2C4763" stroke-width="1"/>
    <line x1="-2400" y1="4528" x2="3480" y2="-1352" stroke="#2C4763" stroke-width="1"/>
    <line x1="-2400" y1="4556" x2="3480" y2="-1324" stroke="#2C4763" stroke-width="1"/>
    <line x1="-2400" y1="4584" x2="3480" y2="-1296" stroke="#2C4763" stroke-width="1"/>
    <line x1="-2400" y1="4612" x2="3480" y2="-1268" stroke="#2C4763" stroke-width="1"/>
    <line x1="-2400" y1="4640" x2="3480" y2="-1240" stroke="#2C4763" stroke-width="1"/>
    <line x1="-2400" y1="4668" x2="3480" y2="-1212" stroke="#2C4763" stroke-width="1"/>
    <line x1="-2400" y1="4696" x2="3480" y2="-1184" stroke="#2C4763" stroke-width="1"/>
    <line x1="-2400" y1="4724" x2="3480" y2="-1156" stroke="#2C4763" stroke-width="1"/>
    <line x1="-2400" y1="4752" x2="3480" y2="-1128" stroke="#2C4763" stroke-width="1"/>
    <line x1="-2400" y1="4780" x2="3480" y2="-1100" stroke="#2C4763" stroke-width="1"/>
    <line x1="-2400" y1="4808" x2="3480" y2="-1072" stroke="#2C4763" stroke-width="1"/>
    <line x1="-2400" y1="4836" x2="3480" y2="-1044" stroke="#2C4763" stroke-width="1"/>
    <line x1="-2400" y1="4864" x2="3480" y2="-1016" stroke="#2C4763" stroke-width="1"/>
    <line x1="-2400" y1="4892" x2="3480" y2="-988" stroke="#2C4763" stroke-width="1"/>
    <line x1="-2400" y1="4920" x2="3480" y2="-960" stroke="#2C4763" stroke-width="1"/>
    <line x1="-2400" y1="4948" x2="3480" y2="-932" stroke="#2C4763" stroke-width="1"/>
    <line x1="-2400" y1="4976" x2="3480" y2="-904" stroke="#2C4763" stroke-width="1"/>
    <line x1="-2400" y1="5004" x2="3480" y2="-876" stroke="#2C4763" stroke-width="1"/>
    <line x1="-2400" y1="5032" x2="3480" y2="-848" stroke="#2C4763" stroke-width="1"/>
    <line x1="-2400" y1="5060" x2="3480" y2="-820" stroke="#2C4763" stroke-width="1"/>
    <line x1="-2400" y1="5088" x2="3480" y2="-792" stroke="#2C4763" stroke-width="1"/>
    <line x1="-2400" y1="5116" x2="3480" y2="-764" stroke="#2C4763" stroke-width="1"/>
    <line x1="-2400" y1="5144" x2="3480" y2="-736" stroke="#2C4763" stroke-width="1"/>
    <line x1="-2400" y1="5172" x2="3480" y2="-708" stroke="#2C4763" stroke-width="1"/>
    <line x1="-2400" y1="5200" x2="3480" y2="-680" stroke="#2C4763" stroke-width="1"/>
    <line x1="-2400" y1="5228" x2="3480" y2="-652" stroke="#2C4763" stroke-width="1"/>
    <line x1="-2400" y1="5256" x2="3480" y2="-624" stroke="#2C4763" stroke-width="1"/>
    <line x1="-2400" y1="5284" x2="3480" y2="-596" stroke="#2C4763" stroke-width="1"/>
    <line x1="-2400" y1="5312" x2="3480" y2="-568" stroke="#2C4763" stroke-width="1"/>
    <line x1="-2400" y1="5340" x2="3480" y2="-540" stroke="#2C4763" stroke-width="1"/>
    <line x1="-2400" y1="5368" x2="3480" y2="-512" stroke="#2C4763" stroke-width="1"/>
    <line x1="-2400" y1="5396" x2="3480" y2="-484" stroke="#2C4763" stroke-width="1"/>
    <line x1="-2400" y1="5424" x2="3480" y2="-456" stroke="#2C4763" stroke-width="1"/>
    <line x1="-2400" y1="5452" x2="3480" y2="-428" stroke="#2C4763" stroke-width="1"/>
    <line x1="-2400" y1="5480" x2="3480" y2="-400" stroke="#2C4763" stroke-width="1"/>
    <line x1="-2400" y1="5508" x2="3480" y2="-372" stroke="#2C4763" stroke-width="1"/>
    <line x1="-2400" y1="5536" x2="3480" y2="-344" stroke="#2C4763" stroke-width="1"/>
    <line x1="-2400" y1="5564" x2="3480" y2="-316" stroke="#2C4763" stroke-width="1"/>
    <line x1="-2400" y1="5592" x2="3480" y2="-288" stroke="#2C4763" stroke-width="1"/>
    <line x1="-2400" y1="5620" x2="3480" y2="-260" stroke="#2C4763" stroke-width="1"/>
    <line x1="-2400" y1="5648" x2="3480" y2="-232" stroke="#2C4763" stroke-width="1"/>
    <line x1="-2400" y1="5676" x2="3480" y2="-204" stroke="#2C4763" stroke-width="1"/>
    <line x1="-2400" y1="5704" x2="3480" y2="-176" stroke="#2C4763" stroke-width="1"/>
    <line x1="-2400" y1="5732" x2="3480" y2="-148" stroke="#2C4763" stroke-width="1"/>
    <line x1="-2400" y1="5760" x2="3480" y2="-120" stroke="#2C4763" stroke-width="1"/>
    <line x1="-2400" y1="5788" x2="3480" y2="-92" stroke="#2C4763" stroke-width="1"/>
    <line x1="-2400" y1="5816" x2="3480" y2="-64" stroke="#2C4763" stroke-width="1"/>
    <line x1="-2400" y1="5844" x2="3480" y2="-36" stroke="#2C4763" stroke-width="1"/>
    <line x1="-2400" y1="5872" x2="3480" y2="-8" stroke="#2C4763" stroke-width="1"/>
  </g>
  <rect x="0" y="0" width="1080" height="2400" fill="url(#glow)"/>
  <rect x="380.0" y="96" width="320" height="84" fill="#08131F" opacity="0.5"/>
  <clipPath id="clip5"><rect x="380.0" y="96" width="320" height="84"/></clipPath>
  <g clip-path="url(#clip5)" opacity="0.5">
    <line x1="296.0" y1="180.0" x2="784.0" y2="-308.0" stroke="#2C4763" stroke-width="1"/>
    <line x1="296.0" y1="195.0" x2="784.0" y2="-293.0" stroke="#2C4763" stroke-width="1"/>
    <line x1="296.0" y1="210.0" x2="784.0" y2="-278.0" stroke="#2C4763" stroke-width="1"/>
    <line x1="296.0" y1="225.0" x2="784.0" y2="-263.0" stroke="#2C4763" stroke-width="1"/>
    <line x1="296.0" y1="240.0" x2="784.0" y2="-248.0" stroke="#2C4763" stroke-width="1"/>
    <line x1="296.0" y1="255.0" x2="784.0" y2="-233.0" stroke="#2C4763" stroke-width="1"/>
    <line x1="296.0" y1="270.0" x2="784.0" y2="-218.0" stroke="#2C4763" stroke-width="1"/>
    <line x1="296.0" y1="285.0" x2="784.0" y2="-203.0" stroke="#2C4763" stroke-width="1"/>
    <line x1="296.0" y1="300.0" x2="784.0" y2="-188.0" stroke="#2C4763" stroke-width="1"/>
    <line x1="296.0" y1="315.0" x2="784.0" y2="-173.0" stroke="#2C4763" stroke-width="1"/>
    <line x1="296.0" y1="330.0" x2="784.0" y2="-158.0" stroke="#2C4763" stroke-width="1"/>
    <line x1="296.0" y1="345.0" x2="784.0" y2="-143.0" stroke="#2C4763" stroke-width="1"/>
    <line x1="296.0" y1="360.0" x2="784.0" y2="-128.0" stroke="#2C4763" stroke-width="1"/>
    <line x1="296.0" y1="375.0" x2="784.0" y2="-113.0" stroke="#2C4763" stroke-width="1"/>
    <line x1="296.0" y1="390.0" x2="784.0" y2="-98.0" stroke="#2C4763" stroke-width="1"/>
    <line x1="296.0" y1="405.0" x2="784.0" y2="-83.0" stroke="#2C4763" stroke-width="1"/>
    <line x1="296.0" y1="420.0" x2="784.0" y2="-68.0" stroke="#2C4763" stroke-width="1"/>
    <line x1="296.0" y1="435.0" x2="784.0" y2="-53.0" stroke="#2C4763" stroke-width="1"/>
    <line x1="296.0" y1="450.0" x2="784.0" y2="-38.0" stroke="#2C4763" stroke-width="1"/>
    <line x1="296.0" y1="465.0" x2="784.0" y2="-23.0" stroke="#2C4763" stroke-width="1"/>
    <line x1="296.0" y1="480.0" x2="784.0" y2="-8.0" stroke="#2C4763" stroke-width="1"/>
    <line x1="296.0" y1="495.0" x2="784.0" y2="7.0" stroke="#2C4763" stroke-width="1"/>
    <line x1="296.0" y1="510.0" x2="784.0" y2="22.0" stroke="#2C4763" stroke-width="1"/>
    <line x1="296.0" y1="525.0" x2="784.0" y2="37.0" stroke="#2C4763" stroke-width="1"/>
    <line x1="296.0" y1="540.0" x2="784.0" y2="52.0" stroke="#2C4763" stroke-width="1"/>
    <line x1="296.0" y1="555.0" x2="784.0" y2="67.0" stroke="#2C4763" stroke-width="1"/>
    <line x1="296.0" y1="570.0" x2="784.0" y2="82.0" stroke="#2C4763" stroke-width="1"/>
  </g>
  <rect x="380.0" y="96" width="320" height="84" fill="none" stroke="#C9A86A" stroke-width="1" stroke-opacity="0.5"/>
  <text x="540" y="144.0" font-family="Poppins" font-size="19" font-weight="500" fill="#F3ECDB" text-anchor="middle" letter-spacing="5" opacity="0.55">LOGO · IMOBILIÁRIA</text>
  <rect x="72" y="236" width="936" height="250" fill="none" stroke="#C9A86A" stroke-width="1" stroke-opacity="0.55"/>
  <text x="540" y="306" font-family="Poppins" font-size="20" font-weight="500" fill="#C9A86A" text-anchor="middle" letter-spacing="5">ALTO PADRÃO · BALNEÁRIO CAMBORIÚ/SC</text>
  <text x="540" y="372" font-family="Bodoni Moda" font-size="46" font-weight="500" fill="#F3ECDB" font-style="italic" text-anchor="middle">Dois empreendimentos, um só padrão</text>
  <text x="540" y="424" font-family="Bodoni Moda" font-size="46" font-weight="500" fill="#F3ECDB" font-style="italic" text-anchor="middle">de excelência</text>
  <rect x="-9" y="-9" width="18" height="18" transform="translate(540,486) rotate(45)" fill="#0B1A2D" stroke="#C9A86A" stroke-width="1"/>
  <rect x="-4" y="-4" width="8" height="8" transform="translate(540,486) rotate(45)" fill="#C9A86A"/>
  <line x1="540" y1="560" x2="540" y2="2040" stroke="#C9A86A" stroke-width="1" stroke-opacity="0.32"/>
  <text x="72" y="590" font-family="Poppins" font-size="16" font-weight="500" fill="#C9A86A" letter-spacing="3">PRÉ-LANÇAMENTO · 2030</text>
  <text x="70" y="656" font-family="Bodoni Moda" font-size="66" font-weight="500" fill="#F3ECDB">Solenne</text>
  <text x="72" y="694" font-family="Poppins" font-size="16" font-weight="400" fill="#AEB8C2" letter-spacing="3">CENTRO · BARRA SUL</text>
  <rect x="72" y="726" width="372" height="372" fill="#08131F" opacity="0.6"/>
  <clipPath id="clip6"><rect x="72" y="726" width="372" height="372"/></clipPath>
  <g clip-path="url(#clip6)" opacity="0.55">
    <line x1="-300" y1="1098" x2="816" y2="-18" stroke="#2C4763" stroke-width="1"/>
    <line x1="-300" y1="1114" x2="816" y2="-2" stroke="#2C4763" stroke-width="1"/>
    <line x1="-300" y1="1130" x2="816" y2="14" stroke="#2C4763" stroke-width="1"/>
    <line x1="-300" y1="1146" x2="816" y2="30" stroke="#2C4763" stroke-width="1"/>
    <line x1="-300" y1="1162" x2="816" y2="46" stroke="#2C4763" stroke-width="1"/>
    <line x1="-300" y1="1178" x2="816" y2="62" stroke="#2C4763" stroke-width="1"/>
    <line x1="-300" y1="1194" x2="816" y2="78" stroke="#2C4763" stroke-width="1"/>
    <line x1="-300" y1="1210" x2="816" y2="94" stroke="#2C4763" stroke-width="1"/>
    <line x1="-300" y1="1226" x2="816" y2="110" stroke="#2C4763" stroke-width="1"/>
    <line x1="-300" y1="1242" x2="816" y2="126" stroke="#2C4763" stroke-width="1"/>
    <line x1="-300" y1="1258" x2="816" y2="142" stroke="#2C4763" stroke-width="1"/>
    <line x1="-300" y1="1274" x2="816" y2="158" stroke="#2C4763" stroke-width="1"/>
    <line x1="-300" y1="1290" x2="816" y2="174" stroke="#2C4763" stroke-width="1"/>
    <line x1="-300" y1="1306" x2="816" y2="190" stroke="#2C4763" stroke-width="1"/>
    <line x1="-300" y1="1322" x2="816" y2="206" stroke="#2C4763" stroke-width="1"/>
    <line x1="-300" y1="1338" x2="816" y2="222" stroke="#2C4763" stroke-width="1"/>
    <line x1="-300" y1="1354" x2="816" y2="238" stroke="#2C4763" stroke-width="1"/>
    <line x1="-300" y1="1370" x2="816" y2="254" stroke="#2C4763" stroke-width="1"/>
    <line x1="-300" y1="1386" x2="816" y2="270" stroke="#2C4763" stroke-width="1"/>
    <line x1="-300" y1="1402" x2="816" y2="286" stroke="#2C4763" stroke-width="1"/>
    <line x1="-300" y1="1418" x2="816" y2="302" stroke="#2C4763" stroke-width="1"/>
    <line x1="-300" y1="1434" x2="816" y2="318" stroke="#2C4763" stroke-width="1"/>
    <line x1="-300" y1="1450" x2="816" y2="334" stroke="#2C4763" stroke-width="1"/>
    <line x1="-300" y1="1466" x2="816" y2="350" stroke="#2C4763" stroke-width="1"/>
    <line x1="-300" y1="1482" x2="816" y2="366" stroke="#2C4763" stroke-width="1"/>
    <line x1="-300" y1="1498" x2="816" y2="382" stroke="#2C4763" stroke-width="1"/>
    <line x1="-300" y1="1514" x2="816" y2="398" stroke="#2C4763" stroke-width="1"/>
    <line x1="-300" y1="1530" x2="816" y2="414" stroke="#2C4763" stroke-width="1"/>
    <line x1="-300" y1="1546" x2="816" y2="430" stroke="#2C4763" stroke-width="1"/>
    <line x1="-300" y1="1562" x2="816" y2="446" stroke="#2C4763" stroke-width="1"/>
    <line x1="-300" y1="1578" x2="816" y2="462" stroke="#2C4763" stroke-width="1"/>
    <line x1="-300" y1="1594" x2="816" y2="478" stroke="#2C4763" stroke-width="1"/>
    <line x1="-300" y1="1610" x2="816" y2="494" stroke="#2C4763" stroke-width="1"/>
    <line x1="-300" y1="1626" x2="816" y2="510" stroke="#2C4763" stroke-width="1"/>
    <line x1="-300" y1="1642" x2="816" y2="526" stroke="#2C4763" stroke-width="1"/>
    <line x1="-300" y1="1658" x2="816" y2="542" stroke="#2C4763" stroke-width="1"/>
    <line x1="-300" y1="1674" x2="816" y2="558" stroke="#2C4763" stroke-width="1"/>
    <line x1="-300" y1="1690" x2="816" y2="574" stroke="#2C4763" stroke-width="1"/>
    <line x1="-300" y1="1706" x2="816" y2="590" stroke="#2C4763" stroke-width="1"/>
    <line x1="-300" y1="1722" x2="816" y2="606" stroke="#2C4763" stroke-width="1"/>
    <line x1="-300" y1="1738" x2="816" y2="622" stroke="#2C4763" stroke-width="1"/>
    <line x1="-300" y1="1754" x2="816" y2="638" stroke="#2C4763" stroke-width="1"/>
    <line x1="-300" y1="1770" x2="816" y2="654" stroke="#2C4763" stroke-width="1"/>
    <line x1="-300" y1="1786" x2="816" y2="670" stroke="#2C4763" stroke-width="1"/>
    <line x1="-300" y1="1802" x2="816" y2="686" stroke="#2C4763" stroke-width="1"/>
    <line x1="-300" y1="1818" x2="816" y2="702" stroke="#2C4763" stroke-width="1"/>
    <line x1="-300" y1="1834" x2="816" y2="718" stroke="#2C4763" stroke-width="1"/>
  </g>
  <rect x="72" y="726" width="372" height="372" fill="none" stroke="#C9A86A" stroke-width="1" stroke-opacity="0.4"/>
  <text x="258" y="918" font-family="Poppins" font-size="17" font-weight="500" fill="#C9A86A" text-anchor="middle" letter-spacing="3" opacity="0.35">FOTO · SOLENNE</text>
  <text x="72" y="1160" font-family="Bodoni Moda" font-size="30" font-weight="400" fill="#E7E0D0" font-style="italic">Arquitetura neoclássica de</text>
  <text x="72" y="1198" font-family="Bodoni Moda" font-size="30" font-weight="400" fill="#E7E0D0" font-style="italic">herança francesa</text>
  <text x="72" y="1280" font-family="Poppins" font-size="17" font-weight="500" fill="#C9A86A" letter-spacing="1.5" opacity="0.85">PAVIMENTOS</text>
  <text x="468" y="1280" font-family="Bodoni Moda" font-size="34" font-weight="500" fill="#F3ECDB" text-anchor="end">35</text>
  <line x1="72" y1="1302" x2="468" y2="1302" stroke="#C9A86A" stroke-width="1" stroke-opacity="0.2"/>
  <text x="72" y="1358" font-family="Poppins" font-size="17" font-weight="500" fill="#C9A86A" letter-spacing="1.5" opacity="0.85">ALTURA</text>
  <text x="468" y="1358" font-family="Bodoni Moda" font-size="34" font-weight="500" fill="#F3ECDB" text-anchor="end">+110m</text>
  <line x1="72" y1="1380" x2="468" y2="1380" stroke="#C9A86A" stroke-width="1" stroke-opacity="0.2"/>
  <text x="72" y="1436" font-family="Poppins" font-size="17" font-weight="500" fill="#C9A86A" letter-spacing="1.5" opacity="0.85">DA PRAIA</text>
  <text x="468" y="1436" font-family="Bodoni Moda" font-size="34" font-weight="500" fill="#F3ECDB" text-anchor="end">700m</text>
  <line x1="72" y1="1458" x2="468" y2="1458" stroke="#C9A86A" stroke-width="1" stroke-opacity="0.2"/>
  <text x="72" y="1514" font-family="Poppins" font-size="17" font-weight="500" fill="#C9A86A" letter-spacing="1.5" opacity="0.85">LAZER</text>
  <text x="468" y="1514" font-family="Bodoni Moda" font-size="34" font-weight="500" fill="#F3ECDB" text-anchor="end">17 amb.</text>
  <line x1="72" y1="1536" x2="468" y2="1536" stroke="#C9A86A" stroke-width="1" stroke-opacity="0.2"/>
  <text x="72" y="1600" font-family="Poppins" font-size="18" font-weight="300" fill="#AEB8C2">3 suítes · 2+1 vagas · 138,59 m²</text>
  <text x="72" y="1988" font-family="Bodoni Moda" font-size="34" font-weight="500" fill="#E3C77E" font-style="italic">A partir de R$ 2,2 mi</text>
  <text x="72" y="2024" font-family="Poppins" font-size="15" font-weight="400" fill="#C9A86A" letter-spacing="2" opacity="0.7">R21 &amp; A10 · ZERMIANI SCHÄFER</text>
  <text x="612" y="590" font-family="Poppins" font-size="16" font-weight="500" fill="#C9A86A" letter-spacing="3">PRONTO PARA MORAR</text>
  <text x="610" y="656" font-family="Bodoni Moda" font-size="66" font-weight="500" fill="#F3ECDB">Pátio Estaleiro</text>
  <text x="612" y="694" font-family="Poppins" font-size="16" font-weight="400" fill="#AEB8C2" letter-spacing="3">PRAIA DO ESTALEIRO</text>
  <rect x="612" y="726" width="396" height="372" fill="#08131F" opacity="0.6"/>
  <clipPath id="clip7"><rect x="612" y="726" width="396" height="372"/></clipPath>
  <g clip-path="url(#clip7)" opacity="0.55">
    <line x1="240" y1="1098" x2="1380" y2="-42" stroke="#2C4763" stroke-width="1"/>
    <line x1="240" y1="1114" x2="1380" y2="-26" stroke="#2C4763" stroke-width="1"/>
    <line x1="240" y1="1130" x2="1380" y2="-10" stroke="#2C4763" stroke-width="1"/>
    <line x1="240" y1="1146" x2="1380" y2="6" stroke="#2C4763" stroke-width="1"/>
    <line x1="240" y1="1162" x2="1380" y2="22" stroke="#2C4763" stroke-width="1"/>
    <line x1="240" y1="1178" x2="1380" y2="38" stroke="#2C4763" stroke-width="1"/>
    <line x1="240" y1="1194" x2="1380" y2="54" stroke="#2C4763" stroke-width="1"/>
    <line x1="240" y1="1210" x2="1380" y2="70" stroke="#2C4763" stroke-width="1"/>
    <line x1="240" y1="1226" x2="1380" y2="86" stroke="#2C4763" stroke-width="1"/>
    <line x1="240" y1="1242" x2="1380" y2="102" stroke="#2C4763" stroke-width="1"/>
    <line x1="240" y1="1258" x2="1380" y2="118" stroke="#2C4763" stroke-width="1"/>
    <line x1="240" y1="1274" x2="1380" y2="134" stroke="#2C4763" stroke-width="1"/>
    <line x1="240" y1="1290" x2="1380" y2="150" stroke="#2C4763" stroke-width="1"/>
    <line x1="240" y1="1306" x2="1380" y2="166" stroke="#2C4763" stroke-width="1"/>
    <line x1="240" y1="1322" x2="1380" y2="182" stroke="#2C4763" stroke-width="1"/>
    <line x1="240" y1="1338" x2="1380" y2="198" stroke="#2C4763" stroke-width="1"/>
    <line x1="240" y1="1354" x2="1380" y2="214" stroke="#2C4763" stroke-width="1"/>
    <line x1="240" y1="1370" x2="1380" y2="230" stroke="#2C4763" stroke-width="1"/>
    <line x1="240" y1="1386" x2="1380" y2="246" stroke="#2C4763" stroke-width="1"/>
    <line x1="240" y1="1402" x2="1380" y2="262" stroke="#2C4763" stroke-width="1"/>
    <line x1="240" y1="1418" x2="1380" y2="278" stroke="#2C4763" stroke-width="1"/>
    <line x1="240" y1="1434" x2="1380" y2="294" stroke="#2C4763" stroke-width="1"/>
    <line x1="240" y1="1450" x2="1380" y2="310" stroke="#2C4763" stroke-width="1"/>
    <line x1="240" y1="1466" x2="1380" y2="326" stroke="#2C4763" stroke-width="1"/>
    <line x1="240" y1="1482" x2="1380" y2="342" stroke="#2C4763" stroke-width="1"/>
    <line x1="240" y1="1498" x2="1380" y2="358" stroke="#2C4763" stroke-width="1"/>
    <line x1="240" y1="1514" x2="1380" y2="374" stroke="#2C4763" stroke-width="1"/>
    <line x1="240" y1="1530" x2="1380" y2="390" stroke="#2C4763" stroke-width="1"/>
    <line x1="240" y1="1546" x2="1380" y2="406" stroke="#2C4763" stroke-width="1"/>
    <line x1="240" y1="1562" x2="1380" y2="422" stroke="#2C4763" stroke-width="1"/>
    <line x1="240" y1="1578" x2="1380" y2="438" stroke="#2C4763" stroke-width="1"/>
    <line x1="240" y1="1594" x2="1380" y2="454" stroke="#2C4763" stroke-width="1"/>
    <line x1="240" y1="1610" x2="1380" y2="470" stroke="#2C4763" stroke-width="1"/>
    <line x1="240" y1="1626" x2="1380" y2="486" stroke="#2C4763" stroke-width="1"/>
    <line x1="240" y1="1642" x2="1380" y2="502" stroke="#2C4763" stroke-width="1"/>
    <line x1="240" y1="1658" x2="1380" y2="518" stroke="#2C4763" stroke-width="1"/>
    <line x1="240" y1="1674" x2="1380" y2="534" stroke="#2C4763" stroke-width="1"/>
    <line x1="240" y1="1690" x2="1380" y2="550" stroke="#2C4763" stroke-width="1"/>
    <line x1="240" y1="1706" x2="1380" y2="566" stroke="#2C4763" stroke-width="1"/>
    <line x1="240" y1="1722" x2="1380" y2="582" stroke="#2C4763" stroke-width="1"/>
    <line x1="240" y1="1738" x2="1380" y2="598" stroke="#2C4763" stroke-width="1"/>
    <line x1="240" y1="1754" x2="1380" y2="614" stroke="#2C4763" stroke-width="1"/>
    <line x1="240" y1="1770" x2="1380" y2="630" stroke="#2C4763" stroke-width="1"/>
    <line x1="240" y1="1786" x2="1380" y2="646" stroke="#2C4763" stroke-width="1"/>
    <line x1="240" y1="1802" x2="1380" y2="662" stroke="#2C4763" stroke-width="1"/>
    <line x1="240" y1="1818" x2="1380" y2="678" stroke="#2C4763" stroke-width="1"/>
    <line x1="240" y1="1834" x2="1380" y2="694" stroke="#2C4763" stroke-width="1"/>
    <line x1="240" y1="1850" x2="1380" y2="710" stroke="#2C4763" stroke-width="1"/>
    <line x1="240" y1="1866" x2="1380" y2="726" stroke="#2C4763" stroke-width="1"/>
  </g>
  <rect x="612" y="726" width="396" height="372" fill="none" stroke="#C9A86A" stroke-width="1" stroke-opacity="0.4"/>
  <text x="810" y="918" font-family="Poppins" font-size="17" font-weight="500" fill="#C9A86A" text-anchor="middle" letter-spacing="3" opacity="0.35">FOTO · PÁTIO ESTALEIRO</text>
  <text x="612" y="1160" font-family="Bodoni Moda" font-size="30" font-weight="400" fill="#E7E0D0" font-style="italic">Casas à beira-mar na Mata Atlântica</text>
  <text x="612" y="1280" font-family="Poppins" font-size="17" font-weight="500" fill="#C9A86A" letter-spacing="1.5" opacity="0.85">PRIVATIVOS</text>
  <text x="1008" y="1280" font-family="Bodoni Moda" font-size="34" font-weight="500" fill="#F3ECDB" text-anchor="end">298—344m²</text>
  <line x1="612" y1="1302" x2="1008" y2="1302" stroke="#C9A86A" stroke-width="1" stroke-opacity="0.2"/>
  <text x="612" y="1358" font-family="Poppins" font-size="17" font-weight="500" fill="#C9A86A" letter-spacing="1.5" opacity="0.85">DO MAR</text>
  <text x="1008" y="1358" font-family="Bodoni Moda" font-size="34" font-weight="500" fill="#F3ECDB" text-anchor="end">90m</text>
  <line x1="612" y1="1380" x2="1008" y2="1380" stroke="#C9A86A" stroke-width="1" stroke-opacity="0.2"/>
  <text x="612" y="1436" font-family="Poppins" font-size="17" font-weight="500" fill="#C9A86A" letter-spacing="1.5" opacity="0.85">CASAS</text>
  <text x="1008" y="1436" font-family="Bodoni Moda" font-size="34" font-weight="500" fill="#F3ECDB" text-anchor="end">08</text>
  <line x1="612" y1="1458" x2="1008" y2="1458" stroke="#C9A86A" stroke-width="1" stroke-opacity="0.2"/>
  <text x="612" y="1514" font-family="Poppins" font-size="17" font-weight="500" fill="#C9A86A" letter-spacing="1.5" opacity="0.85">CERTIFICAÇÃO</text>
  <text x="1008" y="1514" font-family="Bodoni Moda" font-size="34" font-weight="500" fill="#F3ECDB" text-anchor="end">Band. Azul</text>
  <line x1="612" y1="1536" x2="1008" y2="1536" stroke="#C9A86A" stroke-width="1" stroke-opacity="0.2"/>
  <text x="612" y="1600" font-family="Poppins" font-size="18" font-weight="300" fill="#AEB8C2">4 suítes · 3 vagas · piscina privativa</text>
  <text x="612" y="1988" font-family="Bodoni Moda" font-size="30" font-weight="500" fill="#E3C77E" font-style="italic">Entrada + saldo em 180 meses</text>
  <text x="612" y="2024" font-family="Poppins" font-size="15" font-weight="400" fill="#C9A86A" letter-spacing="2" opacity="0.7">A10 EMPREENDIMENTOS</text>
  <line x1="72" y1="2110" x2="1008" y2="2110" stroke="#C9A86A" stroke-width="1" stroke-opacity="0.28"/>
  <rect x="72" y="2150" width="150" height="150" fill="#08131F" stroke="#C9A86A" stroke-width="1" stroke-opacity="0.55"/>
  <clipPath id="clip8"><rect x="72" y="2150" width="150" height="150"/></clipPath>
  <g clip-path="url(#clip8)" opacity="0.6">
    <line x1="-78" y1="2300" x2="372" y2="1850" stroke="#2C4763" stroke-width="1"/>
    <line x1="-78" y1="2316" x2="372" y2="1866" stroke="#2C4763" stroke-width="1"/>
    <line x1="-78" y1="2332" x2="372" y2="1882" stroke="#2C4763" stroke-width="1"/>
    <line x1="-78" y1="2348" x2="372" y2="1898" stroke="#2C4763" stroke-width="1"/>
    <line x1="-78" y1="2364" x2="372" y2="1914" stroke="#2C4763" stroke-width="1"/>
    <line x1="-78" y1="2380" x2="372" y2="1930" stroke="#2C4763" stroke-width="1"/>
    <line x1="-78" y1="2396" x2="372" y2="1946" stroke="#2C4763" stroke-width="1"/>
    <line x1="-78" y1="2412" x2="372" y2="1962" stroke="#2C4763" stroke-width="1"/>
    <line x1="-78" y1="2428" x2="372" y2="1978" stroke="#2C4763" stroke-width="1"/>
    <line x1="-78" y1="2444" x2="372" y2="1994" stroke="#2C4763" stroke-width="1"/>
    <line x1="-78" y1="2460" x2="372" y2="2010" stroke="#2C4763" stroke-width="1"/>
    <line x1="-78" y1="2476" x2="372" y2="2026" stroke="#2C4763" stroke-width="1"/>
    <line x1="-78" y1="2492" x2="372" y2="2042" stroke="#2C4763" stroke-width="1"/>
    <line x1="-78" y1="2508" x2="372" y2="2058" stroke="#2C4763" stroke-width="1"/>
    <line x1="-78" y1="2524" x2="372" y2="2074" stroke="#2C4763" stroke-width="1"/>
    <line x1="-78" y1="2540" x2="372" y2="2090" stroke="#2C4763" stroke-width="1"/>
    <line x1="-78" y1="2556" x2="372" y2="2106" stroke="#2C4763" stroke-width="1"/>
    <line x1="-78" y1="2572" x2="372" y2="2122" stroke="#2C4763" stroke-width="1"/>
    <line x1="-78" y1="2588" x2="372" y2="2138" stroke="#2C4763" stroke-width="1"/>
  </g>
  <rect x="72" y="2150" width="150" height="150" fill="none" stroke="#C9A86A" stroke-width="1" opacity="0.55"/>
  <text x="147" y="2232" font-family="Poppins" font-size="13" font-weight="500" fill="#C9A86A" text-anchor="middle" letter-spacing="2" opacity="0.65">QR CODE</text>
  <text x="258" y="2172" font-family="Poppins" font-size="17" font-weight="500" fill="#C9A86A" letter-spacing="4" opacity="0.9">RECEBA O BOOK COMPLETO</text>
  <text x="258" y="2224" font-family="Bodoni Moda" font-size="42" font-weight="500" fill="#F3ECDB">Agende uma apresentação privativa</text>
  <text x="258" y="2268" font-family="Poppins" font-size="18" font-weight="300" fill="#AEB8C2">WhatsApp (47) 99170-2508 · Corretor credenciado</text>
</svg>
